<svg width="24" height="34" viewBox="0 0 24 34" fill="#CED4DA" xmlns="http://www.w3.org/2000/svg">
<path d="M21.916 15.5833V18.4167H20.4993V8.5C20.4993 3.825 16.6743 0 11.9993 0C7.32435 0 3.49935 3.825 3.49935 8.5V18.4167H2.08268V15.5833H0.666016V19.8333C0.666016 25.075 4.34935 29.4667 9.16601 30.7417V31.1667C9.16601 32.725 10.441 34 11.9993 34C13.5577 34 14.8327 32.725 14.8327 31.1667V30.7417C19.6493 29.4667 23.3327 25.075 23.3327 19.8333V15.5833H21.916ZM6.33268 18.4167H8.45768C8.88268 18.4167 9.16601 18.1333 9.16601 17.7083C9.16601 17.2833 8.88268 17 8.45768 17H6.33268V14.1667H8.45768C8.88268 14.1667 9.16601 13.8833 9.16601 13.4583C9.16601 13.0333 8.88268 12.75 8.45768 12.75H6.33268V9.91667H8.45768C8.88268 9.91667 9.16601 9.63333 9.16601 9.20833C9.16601 8.78333 8.88268 8.5 8.45768 8.5H6.33268C6.33268 5.38333 8.88268 2.83333 11.9993 2.83333C15.116 2.83333 17.666 5.38333 17.666 8.5H15.541C15.116 8.5 14.8327 8.78333 14.8327 9.20833C14.8327 9.63333 15.116 9.91667 15.541 9.91667H17.666V12.75H15.541C15.116 12.75 14.8327 13.0333 14.8327 13.4583C14.8327 13.8833 15.116 14.1667 15.541 14.1667H17.666V17H15.541C15.116 17 14.8327 17.2833 14.8327 17.7083C14.8327 18.1333 15.116 18.4167 15.541 18.4167H17.666V19.8333C17.666 22.95 15.116 25.5 11.9993 25.5C8.88268 25.5 6.33268 22.95 6.33268 19.8333V18.4167ZM14.8327 29.325L13.416 29.75V31.1667C13.416 32.0167 12.8493 32.5833 11.9993 32.5833C11.1493 32.5833 10.5827 32.0167 10.5827 31.1667V29.75L9.16601 29.325C5.05768 28.05 2.08268 24.3667 2.08268 19.8333H3.49935C3.49935 24.5083 7.32435 28.3333 11.9993 28.3333C16.6743 28.3333 20.4993 24.5083 20.4993 19.8333H21.916C21.916 24.3667 18.941 28.05 14.8327 29.325Z" />
</svg>
