<svg width="14" height="12" viewBox="0 0 14 12" fill="none" xmlns="http://www.w3.org/2000/svg">
<path d="M12.3594 0.75H1.64062C1.21406 0.75 0.875 1.09727 0.875 1.52383V10.4762C0.875 10.9027 1.21406 11.25 1.64062 11.25H12.3594C12.7859 11.25 13.125 10.9027 13.125 10.4762V1.52383C13.125 1.09727 12.7859 0.75 12.3594 0.75ZM9.54023 6.15586C9.4582 6.06016 9.33242 5.98633 9.19023 5.98633C9.05078 5.98633 8.95234 6.05195 8.84023 6.14219L8.32891 6.57422C8.22227 6.65078 8.1375 6.70273 8.01445 6.70273C7.89688 6.70273 7.79023 6.65898 7.71367 6.59063C7.68633 6.56602 7.63711 6.51953 7.59609 6.47852L6.125 4.88711C6.01562 4.76133 5.85156 4.68203 5.66836 4.68203C5.48516 4.68203 5.31563 4.77227 5.20898 4.89531L1.75 9.06797V1.94492C1.77734 1.75898 1.92227 1.625 2.1082 1.625H11.8891C12.0777 1.625 12.2309 1.76445 12.2418 1.95312L12.25 9.07344L9.54023 6.15586Z" fill="#E89E36"/>
</svg>
