<svg width="12" height="14" viewBox="0 0 10 12" fill="none" xmlns="http://www.w3.org/2000/svg">
<path d="M8.04414 0.456055L9.6592 2.0762L9.65297 2.08216L8.05787 2.08336L8.04297 0.457258L8.04414 0.456055Z" fill="#F1F1F1"/>
<path d="M3.70822 3.01295C3.70822 3.32035 3.5365 3.46555 3.27294 3.46347C3.23687 3.46347 3.19659 3.46347 3.17188 3.45781V2.61611C3.19659 2.61045 3.23865 2.60449 3.30364 2.60449C3.55348 2.60452 3.71003 2.74583 3.70822 3.01295Z" fill="#F1F1F1"/>
<path d="M2.40594 2.78931C2.40594 2.92108 2.31051 2.9995 2.1561 2.9995C2.11405 2.9995 2.08334 2.99742 2.05859 2.99176V2.61191C2.07976 2.60625 2.11971 2.60059 2.17874 2.60059C2.32394 2.60059 2.40594 2.67094 2.40594 2.78931Z" fill="#F1F1F1"/>
<path d="M1.43663 1.58691H6.44552V4.47895H1.43663H1.42441H0.363281V1.58691H1.42438H1.43663Z" fill="#F1F1F1"/>
<path d="M5.68978 5.97255C5.69334 6.27278 5.50133 6.85862 5.50133 6.85862C5.4351 6.78887 5.30273 6.41557 5.30273 6.0703C5.30273 5.72506 5.41427 5.63086 5.50133 5.63086C5.58867 5.63086 5.68615 5.67261 5.68978 5.97255Z" fill="#DC1D00"/>
<path d="M7.77955 8.59026C7.77955 8.9868 7.06102 8.82517 6.61914 8.40449C6.61914 8.40449 7.77955 8.19399 7.77955 8.59026Z" fill="#DC1D00"/>
<path d="M3.61118 9.89619C3.2555 9.68332 4.35775 9.02767 4.55662 9.00684C4.55662 9.00681 3.98358 10.1189 3.61118 9.89619Z" fill="#DC1D00"/>
<path d="M5.66763 7.51074C5.86981 7.88732 6.27108 8.33037 6.27108 8.33037C6.27108 8.33037 6.11752 8.34768 5.76068 8.43501C5.40377 8.52235 5.22461 8.61302 5.22461 8.61302C5.22461 8.61302 5.22461 8.61302 5.37101 8.28506C5.51768 7.95707 5.66763 7.51074 5.66763 7.51074Z" fill="#DC1D00"/>
<path d="M9.66641 2.08168V11.5452H1.4375V4.4791H6.44638V1.58706H1.4375V0.454102H8.04419L8.04536 0.455578L8.04419 0.456754L8.05909 2.08286L9.65419 2.08166L9.66045 2.0757L9.66641 2.08168Z" fill="#DC1D00"/>
<path d="M4.55617 9.0073C4.35733 9.02816 3.25505 9.68378 3.61074 9.89665C3.98313 10.1194 4.55617 9.0073 4.55617 9.0073ZM6.61994 8.40502C7.06179 8.82571 7.78036 8.98734 7.78036 8.5908C7.78036 8.19453 6.61994 8.40502 6.61994 8.40502ZM6.27229 8.33049C6.27229 8.33049 5.871 7.88746 5.66884 7.51086C5.66884 7.51086 5.51889 7.95719 5.37219 8.28515C5.22579 8.61311 5.22579 8.61311 5.22579 8.61311C5.22579 8.61311 5.40498 8.52247 5.76187 8.4351C6.11873 8.34779 6.27229 8.33049 6.27229 8.33049ZM5.50131 6.85852C5.50131 6.85852 5.69329 6.27268 5.68976 5.97244C5.68613 5.67251 5.58867 5.63076 5.50131 5.63076C5.41425 5.63076 5.30271 5.72496 5.30271 6.0702C5.30271 6.41547 5.43508 6.78879 5.50131 6.85852ZM5.74221 7.31201C5.93752 7.73417 6.47477 8.27801 6.47477 8.27801C6.47477 8.27801 6.6489 8.2327 7.36744 8.21542C8.08625 8.19811 8.11759 8.60239 8.12084 8.63728C8.12442 8.67247 8.15248 8.9933 7.58031 9.01413C7.00847 9.03502 6.41516 8.43871 6.41516 8.43871C6.41516 8.43871 6.17126 8.47716 5.96911 8.5258C5.76695 8.57467 5.1179 8.75267 5.1179 8.75267C5.1179 8.75267 4.92589 9.1015 4.50042 9.65934C4.07468 10.2175 3.59794 10.1758 3.46196 9.99085C3.30394 9.7762 3.42589 9.56188 3.72583 9.28276C4.02576 9.00372 4.71777 8.77233 4.71777 8.77233C4.71777 8.77233 4.85731 8.52129 5.06184 8.04217C5.26634 7.56306 5.42111 7.08183 5.42111 7.08183C5.42111 7.08183 5.21866 6.6221 5.17928 6.23092C5.13518 5.79474 5.18407 5.50167 5.51889 5.49808C5.85374 5.4945 5.95836 5.74585 5.96881 6.18171C5.97922 6.61795 5.74221 7.31201 5.74221 7.31201Z" fill="white"/>
<path d="M4.97266 2.63574V2.38965H4.20703V3.6748H4.48047V3.15527H4.94531V2.93652H4.48047V2.63574H4.97266Z" fill="#A51600"/>
<path d="M3.79945 2.51832C3.67541 2.42469 3.51102 2.38086 3.26654 2.38086C3.11957 2.38086 2.97656 2.3904 2.86719 2.40768V3.67124C2.94922 3.68078 3.05277 3.6903 3.20362 3.6903C3.45557 3.6903 3.66494 3.63692 3.80029 3.52424C3.92432 3.41929 4.0156 3.24932 4.0156 3.00307C4.0156 2.77622 3.93332 2.6176 3.79945 2.51832ZM3.25716 3.46315C3.2211 3.46315 3.19531 3.46315 3.14062 3.45749V2.6158C3.19531 2.61014 3.22287 2.60418 3.2879 2.60418C3.53774 2.60418 3.69425 2.74549 3.69245 3.01264C3.69245 3.32004 3.5207 3.46523 3.25716 3.46315Z" fill="#A51600"/>
<path d="M2.55678 2.484C2.47092 2.41512 2.33095 2.38086 2.15144 2.38086C1.97403 2.38086 1.82813 2.39248 1.74609 2.40768V3.67526H2.04688V3.21684C2.07422 3.22072 2.11384 3.2228 2.15204 3.2228C2.32376 3.2228 2.47366 3.18075 2.57297 3.08715C2.64929 3.01471 2.69276 2.90766 2.69276 2.78186C2.69276 2.65575 2.63876 2.549 2.55678 2.484ZM2.15021 2.99951C2.10818 2.99951 2.07422 2.99743 2.04688 2.99177V2.61191C2.07422 2.60625 2.11384 2.60059 2.17285 2.60059C2.31807 2.60059 2.40005 2.67095 2.40005 2.78932C2.40005 2.92109 2.30464 2.99951 2.15021 2.99951Z" fill="#A51600"/>
</svg>
