<svg width="12" height="12" viewBox="0 0 12 12" fill="none" xmlns="http://www.w3.org/2000/svg">
<path d="M10.3455 3.28676V11.2269C10.3455 11.6539 9.9991 12 9.57242 12H2.42734C2.00033 12 1.6543 11.6539 1.6543 11.2269V0.773039C1.65427 0.346031 2.0003 0 2.42734 0H7.0587L10.3455 3.28676Z" fill="#518EF8"/>
<path d="M8.2217 6.02441H3.77734V6.51827H8.2217V6.02441Z" fill="white"/>
<path d="M8.2217 7.12695H3.77734V7.62081H8.2217V7.12695Z" fill="white"/>
<path d="M8.2217 8.23047H3.77734V8.72432H8.2217V8.23047Z" fill="white"/>
<path d="M6.93801 9.33301H3.77734V9.82686H6.93801V9.33301Z" fill="white"/>
<path d="M7.50781 3.21526L10.3461 4.38458V3.28667L8.7369 2.81152L7.50781 3.21526Z" fill="#3A5BBC"/>
<path d="M10.3454 3.28676H7.83163C7.4046 3.28676 7.05859 2.94073 7.05859 2.51372V0L10.3454 3.28676Z" fill="#ACD1FC"/>
</svg>
