<svg width="86" height="86" viewBox="0 0 86 86" fill="none" xmlns="http://www.w3.org/2000/svg">
<path fill-rule="evenodd" clip-rule="evenodd" d="M21 8C18.7909 8 17 9.79086 17 12V73C17 75.2091 18.7909 77 21 77H63C65.2091 77 67 75.2091 67 73V17L58 8H21Z" fill="#E62D27"/>
<g filter="url(#filter0_d_102_123)">
<path d="M67 17H58V8L67 17Z" fill="white"/>
</g>
<path fill-rule="evenodd" clip-rule="evenodd" d="M57.6806 49.5245C57.6806 49.5245 56.9618 52.0078 56.0017 53C54.7852 54.3027 53.3274 54.5791 52.7014 54.6553C52.4962 54.6709 52.2843 54.6841 52.0724 54.6973L52.0714 54.6884C51.792 54.7109 51.5049 54.6269 51.2919 54.4131C50.9037 54.0263 50.9037 53.3969 51.2919 53.0103C51.4677 52.834 51.6958 52.75 51.9254 52.7334L51.9244 52.7221C51.9581 52.7197 51.9937 52.7178 52.0264 52.7153C52.5446 52.6523 53.6736 52.6469 54.6821 51.5704C55.4772 50.7511 55.735 48.8897 55.735 48.8897C55.735 48.8897 55.9997 46.7046 55.9997 44.5196V41.4696C55.9997 39.2846 55.735 37.0981 55.735 37.0981C55.735 37.0981 55.4772 35.237 54.6821 34.4174C53.6736 33.342 52.5446 33.3364 52.0264 33.2736C48.3179 33.0002 41.9991 33.0012 41.9991 33.0012C41.9991 33.0012 35.6812 33.0002 31.9726 33.2736C31.4544 33.3364 30.3254 33.342 29.3174 34.4174C28.5234 35.237 28.2645 37.0981 28.2645 37.0981C28.264 37.0981 27.9998 39.2846 27.9998 41.4696V44.5196C27.9998 46.7046 28.2645 48.8897 28.2645 48.8897C28.264 48.8897 28.5234 50.751 29.3174 51.5704C30.3254 52.647 31.6498 52.6133 32.2397 52.7256C34.3602 52.9326 41.999 53 41.999 53C42.5518 53 42.9991 53.4482 42.9991 54C42.9991 54.5527 42.5518 55 41.999 55C41.9824 55 41.9663 54.9971 41.9497 54.9961C41.3183 54.9893 34.0676 54.9082 31.6195 54.6675C30.9075 54.5303 29.2153 54.3027 27.9974 53C27.0372 52.0078 26.3199 49.5245 26.3199 49.5245C26.3199 49.5245 26 47.3794 26 44.7335V41.2533C26 38.6073 26.3199 36.4614 26.3199 36.4614C26.3199 36.4614 27.0372 33.9924 27.9974 33.0012C29.2153 31.6985 30.6721 31.407 31.2977 31.3308C35.7764 31 41.9932 31 41.9932 31H42.0069C42.0069 31 48.2237 31 52.7014 31.3308C53.3274 31.407 54.7852 31.6985 56.0017 33.0012C56.9618 33.9924 57.6806 36.4614 57.6806 36.4614C57.6806 36.4614 58 38.6073 58 41.2533V44.7335C58 47.3794 57.6806 49.5245 57.6806 49.5245ZM46.0001 53C46.5529 53 47.0002 53.4482 47.0002 54C47.0002 54.5527 46.5529 55 46.0001 55C45.4473 55 45 54.5527 45 54C45 53.4482 45.4473 53 46.0001 53ZM41.5293 47.8839L41.52 47.8888C41.372 47.9786 41.2006 48.0323 41.0155 48.0323C40.4719 48.0323 40.031 47.5914 40.031 47.0479C40.031 46.6691 40.2473 46.3438 40.5614 46.1789L40.5604 46.1779L45.6612 43.4577C45.6583 43.4552 45.65 43.4533 45.6549 43.4509C45.8219 43.3703 45.9372 43.1987 45.9372 43.0002C45.9372 42.8186 45.8366 42.6594 45.6915 42.5729L39.7204 39.3821C39.651 39.3474 39.5793 39.3293 39.4996 39.3293C39.2325 39.3293 39.0196 39.539 39.0049 39.8003L39.0059 45.9904H38.9981C38.9981 45.9938 38.9995 45.9972 38.9995 46.0006C38.9995 46.5533 38.5507 47.0006 37.9989 47.0006C37.4461 47.0006 36.9987 46.5533 36.9987 46.0006C36.9987 45.9992 36.9987 45.9992 36.9987 45.9982V39.0356C36.9987 37.9121 37.9105 37.0007 39.0342 37.0007C39.4185 37.0007 39.7775 37.1071 40.0837 37.2922C40.0959 37.2988 40.1003 37.2966 40.1106 37.301L47.0091 41.2758C47.1551 41.361 47.2898 41.4618 47.4144 41.5863C48.1958 42.3678 48.1958 43.6339 47.4144 44.4152C47.2996 44.5294 47.1731 44.6251 47.0408 44.7067L41.5697 47.8594C41.5561 47.8683 41.5424 47.8751 41.5293 47.8839Z" fill="white"/>
<defs>
<filter id="filter0_d_102_123" x="54" y="6" width="17" height="17" filterUnits="userSpaceOnUse" color-interpolation-filters="sRGB">
<feFlood flood-opacity="0" result="BackgroundImageFix"/>
<feColorMatrix in="SourceAlpha" type="matrix" values="0 0 0 0 0 0 0 0 0 0 0 0 0 0 0 0 0 0 127 0" result="hardAlpha"/>
<feOffset dy="2"/>
<feGaussianBlur stdDeviation="2"/>
<feComposite in2="hardAlpha" operator="out"/>
<feColorMatrix type="matrix" values="0 0 0 0 0 0 0 0 0 0 0 0 0 0 0 0 0 0 0.16 0"/>
<feBlend mode="normal" in2="BackgroundImageFix" result="effect1_dropShadow_102_123"/>
<feBlend mode="normal" in="SourceGraphic" in2="effect1_dropShadow_102_123" result="shape"/>
</filter>
</defs>
</svg>
